<svg width="133" height="78" viewBox="0 0 133 78" fill="none" xmlns="http://www.w3.org/2000/svg">
    <path d="M133 52.6819C131.722 53.1603 130.476 53.7271 129.178 54.1537C126.216 55.128 123.195 55.7868 120.093 56.033C116.135 56.3466 112.198 56.1766 108.299 55.4065C104.217 54.6005 100.407 53.0691 97.027 50.5092C93.5706 47.8906 91.0222 44.5106 89.3517 40.4149C88.2315 37.6684 87.5751 34.8018 87.3066 31.8354C86.9271 27.638 87.0886 23.4783 88.1583 19.3905C89.1985 15.4148 90.9785 11.8579 93.6783 8.81173C96.4993 5.62802 99.9397 3.46846 103.836 2.04393C106.534 1.05746 109.315 0.490628 112.162 0.237438C113.363 0.130555 114.563 0.050831 115.769 0.0674767C115.909 0.0692289 116.05 0.0709811 116.181 0.00177002H117.022C117.824 0.157714 118.638 0.0858746 119.446 0.137564C122.793 0.353958 126.042 1.06184 129.23 2.11139C130.513 2.53367 131.75 3.0821 133.002 3.58936V3.76457C132.938 3.89336 132.867 4.01864 132.811 4.15181C131.239 7.95403 129.664 11.7545 128.104 15.562C127.959 15.9151 127.827 16.007 127.496 15.7898C126.891 15.3929 126.238 15.0837 125.572 14.8129C123.235 13.8633 120.825 13.4322 118.301 13.5444C115.753 13.6583 113.289 14.0902 110.956 15.1783C107.686 16.7027 105.376 19.1794 104.213 22.7363C103.295 25.5442 103.201 28.4256 103.677 31.3264C104.327 35.2836 106.258 38.3657 109.61 40.4184C112.184 41.9945 115.023 42.6051 117.964 42.7663C121.359 42.9521 124.566 42.2328 127.529 40.4613C127.843 40.2739 127.971 40.3168 128.112 40.662C129.354 43.723 130.606 46.7806 131.866 49.8337C132.236 50.7291 132.546 51.6525 133.002 52.5084V52.6837L133 52.6819Z" fill="white"/>
    <path d="M38.0121 47.9204C38.1442 47.8039 38.1543 47.6348 38.2006 47.4876C40.892 38.9387 43.5809 30.3881 46.269 21.8383C48.1289 15.9212 49.9879 10.0032 51.8462 4.08523C52.081 3.33705 52.3208 2.59062 52.5447 1.83806C52.6238 1.57261 52.7652 1.44645 53.032 1.47098C53.1153 1.47886 53.2003 1.47098 53.2845 1.47098C60.714 1.47098 68.1428 1.47098 75.5723 1.47098C76.0178 1.47098 76.2408 1.70431 76.2414 2.17098C76.2414 27.2131 76.2414 52.2553 76.2414 77.2974C76.2414 77.7495 76.0251 77.9761 75.5925 77.9772C70.5463 77.9772 65.5002 77.9772 60.454 77.9772C60.027 77.9772 59.813 77.7486 59.8118 77.2913C59.8118 60.3731 59.8118 43.4541 59.8118 26.5359V26.0129C59.7933 26.0076 59.774 26.0024 59.7555 25.9971C59.6385 26.3773 59.5215 26.7576 59.4054 27.1378C57.6978 32.7535 55.9952 38.371 54.2817 43.985C51.3118 53.7122 48.3359 63.4368 45.3609 73.1614C44.9148 74.6201 44.4536 76.0744 44.0211 77.5375C43.9201 77.88 43.7534 77.9843 43.4202 77.9834C39.6078 77.9737 35.7945 77.9729 31.9821 77.9834C31.6093 77.9843 31.4401 77.8502 31.3316 77.4788C28.6612 68.2973 25.9765 59.1194 23.3019 49.9389C21.0625 42.2512 18.8322 34.5609 16.5978 26.8714C16.5381 26.6664 16.4733 26.4632 16.3538 26.2687C16.3538 26.4527 16.3538 26.6375 16.3538 26.8215C16.3538 43.5653 16.3538 60.3083 16.3538 77.0521C16.3538 77.1835 16.3411 77.3158 16.3554 77.4455C16.4017 77.8634 16.2343 77.9983 15.8303 77.9974C10.742 77.986 5.65377 77.9904 0.565511 77.9895C0.010902 77.9895 0.0083773 77.986 0.0083773 77.4008C0.0083773 69.4371 0.0083773 61.4744 0.0083773 53.5107C0.0083773 36.4751 0.0083773 19.4396 0.0083773 2.40402C0.0083773 2.25858 0.0218428 2.11053 0.00585252 1.96685C-0.0353854 1.58049 0.128725 1.46397 0.490609 1.46485C8.00433 1.47273 15.5172 1.47361 23.0309 1.46222C23.4223 1.46222 23.5224 1.66635 23.6217 1.98612C26.2711 10.5035 28.9255 19.0182 31.5815 27.5338C33.6577 34.1903 35.7348 40.8468 37.8152 47.5016C37.8598 47.6444 37.8573 47.8214 38.0121 47.9186V47.9204Z" fill="white"/>
    <path d="M111.083 77.9913C104.638 77.9913 98.1918 77.9913 91.7461 77.9913C91.3163 77.9913 91.1011 77.767 91.1006 77.3184C91.1006 73.1193 91.1006 68.9202 91.1006 64.7211C91.1006 64.0816 91.1132 64.0667 91.7419 64.0667C104.633 64.0667 117.525 64.0667 130.417 64.0667C131.042 64.0667 131.061 64.0851 131.061 64.7211C131.062 68.9351 131.061 73.1483 131.061 77.3622C131.061 77.9895 131.058 77.9913 130.463 77.9913C124.003 77.9913 117.544 77.9913 111.084 77.9913H111.083Z" fill="#EF8200"/>
</svg>
