<svg width="457" height="458" viewBox="0 0 457 458" fill="none" xmlns="http://www.w3.org/2000/svg">
<path opacity="0.2" d="M398.387 348.614C389.233 358.031 384.801 369.202 385.6 382.31C386.266 393.255 390.824 402.452 398.418 410.335C411.846 424.273 407.364 446.949 389.724 454.863C372.693 462.508 352.928 451.073 351.049 432.47C350.175 423.826 352.803 416.352 358.825 410.141C367.174 401.534 371.48 391.312 371.612 379.047C371.405 367.473 367.161 357.352 358.907 348.852C347.805 337.423 348.195 319.878 359.705 309.065C370.556 298.874 387.687 299.258 398.255 309.926C408.816 320.588 408.936 337.763 398.393 348.614H398.387ZM157.44 210.661C149.607 219.405 148.061 229.69 152.839 240.365C157.598 250.989 166.355 256.194 175.697 256.653C194.682 256.678 207.507 242.207 205.464 225.597C204.678 219.21 201.78 213.923 197.417 209.221C184.749 195.579 181.744 179.906 188.226 162.486C190.3 156.904 193.878 152.264 197.983 147.964C208.356 137.114 208.255 120.184 197.882 109.566C187.427 98.8597 170.466 98.2876 159.49 108.258C147.677 118.989 147.275 136.824 158.478 148.48C169.605 160.066 173.308 173.808 169.762 189.424C167.876 197.735 163.086 204.368 157.447 210.661H157.44ZM378.125 256.748C379.804 256.628 381.061 256.641 382.274 256.44C393.263 254.604 400.996 248.544 404.629 238.026C408.288 227.421 405.855 217.852 398.261 209.592C396.809 208.008 395.325 206.43 394.049 204.707C381.212 187.337 382.884 164.071 398.047 148.486C407.553 138.723 408.929 124.371 401.429 113.281C394.118 102.468 380.074 98.2436 367.991 103.216C349.659 110.766 345.133 134.065 359.045 148.562C370.556 160.556 374.077 174.777 369.89 190.833C367.865 198.609 363.176 204.776 357.895 210.73C350.156 219.449 348.597 229.652 353.318 240.27C358.083 250.995 366.891 256.213 378.125 256.748ZM301.271 213.684C294.092 202.89 280.192 198.559 268.078 203.343C249.501 210.673 244.736 234.279 258.805 248.826C269.298 259.677 273.145 272.659 270.48 287.495C268.883 296.378 264.363 303.671 258.259 310.253C250.105 319.041 248.225 329.402 252.99 340.359C257.705 351.191 266.569 356.459 276.182 356.918C295.871 356.906 308.96 340.762 305.364 323.618C304.113 317.658 300.945 312.881 296.802 308.524C289.754 301.106 285.92 292.16 285.329 281.957C284.581 269.006 288.868 257.892 297.927 248.575C307.294 238.938 308.614 224.717 301.271 213.678V213.684ZM197.599 409.977C190.08 402.32 185.755 393.16 185.083 382.435C184.253 369.259 188.678 358.006 197.913 348.563C207.431 338.832 208.312 323.404 200.114 312.686C191.715 301.709 176.866 298.478 164.833 305.003C148.564 313.83 145.389 335.5 158.415 348.909C166.77 357.509 171.095 367.756 171.019 379.77C170.944 391.878 166.11 401.88 157.893 410.656C149.689 419.42 147.973 429.862 152.795 440.781C157.528 451.506 166.361 456.73 175.841 457.177C195.6 457.164 208.695 441.052 205.087 423.896C203.955 418.514 201.434 413.887 197.587 409.971L197.599 409.977ZM57.6344 310.391C49.5498 319.136 47.7393 329.452 52.4668 340.34C57.1755 351.191 66.0333 356.447 75.6581 356.931C94.2601 356.906 107.009 342.71 105.255 326.359C104.551 319.808 101.798 314.276 97.2148 309.58C89.7212 301.904 85.44 292.719 84.8176 281.995C84.0507 268.887 88.4827 257.722 97.6486 248.311C106.997 238.711 108.04 223.869 100.333 213.062C92.5879 202.205 78.2293 198.377 66.1527 203.946C48.6886 212 44.6463 234.719 58.1436 248.657C68.8685 259.734 72.7474 272.948 69.8681 288.049C68.2084 296.762 63.6318 303.897 57.6344 310.385V310.391ZM271.291 78.1831C271.423 90.4293 266.896 100.771 258.397 109.528C250.469 117.694 248.25 129.557 252.934 139.817C257.844 150.579 266.538 155.911 278.25 156.451C283.166 156.451 287.724 155.232 291.942 152.818C307.778 143.759 310.764 122.61 298.002 109.365C290.509 101.588 286.039 92.4662 285.354 81.6721C284.524 68.5708 288.881 57.3618 298.034 47.9382C308.916 36.7355 308.589 19.4348 297.405 8.559C286.592 -1.95219 269.134 -1.63786 258.435 9.2631C247.842 20.0572 247.993 37.1064 258.799 48.2463C266.89 56.5886 271.171 66.5403 271.291 78.1768V78.1831ZM57.8733 109.534C50.0087 117.625 47.7644 129.482 52.3411 139.647C57.2383 150.523 65.9453 155.898 75.4192 156.395C94.2601 156.395 106.997 142.212 105.268 125.848C104.52 118.769 101.087 113.174 96.3347 108.019C85.8235 96.6154 82.5482 83.1432 86.0309 68.0868C87.8729 60.1342 92.1227 53.5207 97.7617 47.6365C108.216 36.7355 107.984 19.9189 97.4285 9.11222C87.1374 -1.42412 70.151 -1.89561 59.1683 8.0435C47.3935 18.7056 47.0352 36.6098 58.263 48.2651C68.8497 59.2541 72.6971 72.3554 69.8995 87.3175C68.2839 95.9678 63.9839 103.235 57.867 109.528L57.8733 109.534ZM109.593 99.4003C120.469 109.05 136.783 108.585 147.432 98.2939C157.088 88.9583 168.593 84.6771 181.99 85.815C192.193 86.6825 200.95 90.8506 208.261 97.9858C213.8 103.392 220.35 106.272 224.292 106.297C248.376 106.297 261.76 85.2932 253.198 66.9363C245.138 49.6608 222.456 45.5368 208.745 58.8958C200.001 67.4204 189.571 71.865 177.363 71.6953C165.6 71.5318 155.605 67.0243 147.181 58.8078C136.06 47.9508 118.187 48.4349 107.676 59.7696C97.0451 71.2364 97.9 89.0211 109.587 99.3877L109.593 99.4003ZM143.949 356.937C132.847 348.997 118.181 350.261 108.128 360.017C94.807 372.949 75.8467 376.136 59.0552 368.247C54.5854 366.147 50.7003 363.205 47.1358 359.797C39.9691 352.939 31.4319 350.368 21.7379 352.442C10.2209 354.906 1.57052 364.475 0.225191 375.809C-1.18929 387.678 4.66981 398.862 15.0553 404.118C25.6733 409.499 38.3157 407.582 46.9723 399.29C65.0589 381.964 90.5007 382.008 108.656 399.378C114.044 404.533 120.5 407.085 124.354 407.098C140.108 407.06 150.538 399.359 154.278 387.66C157.887 376.388 153.687 363.903 143.949 356.943V356.937ZM342.046 355.378C331.095 349.154 317.975 351.015 308.539 360.118C300.064 368.291 289.918 372.515 278.162 372.49C266.4 372.459 256.297 368.146 247.842 359.961C240.706 353.052 232.207 350.43 222.5 352.379C211.04 354.68 202.188 364.299 200.774 375.564C199.265 387.597 205.206 398.969 215.711 404.181C226.36 409.462 238.927 407.525 247.464 399.328C248.967 397.882 250.507 396.455 252.167 395.197C269.342 382.209 292.967 383.649 308.419 398.674C314.027 404.124 320.596 407.06 325.406 407.092C341.097 407.066 351.904 398.699 355.154 386.383C358.341 374.319 352.947 361.564 342.046 355.372V355.378ZM121.072 305.965C131.005 308.367 139.888 306.072 147.262 298.943C155.888 290.607 166.084 286.276 178.023 286.1C190.206 286.295 200.434 290.827 209.141 299.276C220.105 309.913 238.06 309.26 248.357 298.082C258.862 286.672 258.145 269.032 246.748 258.709C235.696 248.694 219.395 249.21 208.318 259.797C197.593 270.044 184.831 274.004 170.19 271.502C161.024 269.937 153.43 265.385 146.753 258.96C138.461 250.97 125.882 249.254 115.647 254.352C105.004 259.652 99.1699 270.622 100.484 282.843C101.647 293.65 110.102 303.312 121.066 305.965H121.072ZM317.899 104.21C329.134 108.535 339.324 106.479 348.081 98.1556C357.593 89.1092 368.808 84.828 381.922 85.7836C392.427 86.5505 401.411 90.7814 408.923 98.1241C414.411 103.487 420.943 106.272 425.771 106.309C443.814 106.278 456.117 94.2013 456.337 79.0883C456.5 67.917 449.817 57.6196 439.551 53.219C429.223 48.7932 417.385 51.0124 409.263 58.8958C391.547 76.0959 365.351 76.0582 347.717 58.8015C339.796 51.0501 327.813 48.8184 317.579 53.1875C307.288 57.5819 300.618 67.8165 300.731 79.0192C300.844 90.0081 307.633 100.255 317.893 104.203L317.899 104.21ZM442.349 255.144C431.593 248.965 418.259 250.7 409.131 259.564C400.952 267.504 391.22 271.892 379.841 272.213C367.639 272.558 357.084 268.353 348.289 259.859C341.399 253.196 333.258 250.423 323.765 251.926C312.072 253.78 302.554 263.587 301.033 275.262C299.423 287.577 305.81 299.333 316.818 304.312C327.455 309.121 339.4 307.109 347.811 298.949C352.671 294.235 358.127 290.475 364.59 288.463C381.136 283.321 395.941 286.552 408.621 298.415C414.273 303.696 420.685 306.739 425.991 306.82C441.136 306.889 452.081 298.572 455.362 286.376C458.638 274.212 453.319 261.45 442.349 255.151V255.144ZM325.984 206.574C341.757 206.581 352.916 197.333 355.594 184.012C358.115 171.482 351.118 158.211 339.092 153.452C327.719 148.951 317.441 151.133 308.589 159.582C300.234 167.56 290.339 171.841 278.797 171.967C266.5 172.105 256.09 167.522 247.295 158.947C238.776 150.642 225.769 148.876 215.378 154.389C204.728 160.041 198.768 171.684 200.881 183.383C202.811 194.083 208.978 201.608 219.307 205.072C229.673 208.548 239.103 206.323 247.295 198.98C249.476 197.025 251.639 194.988 254.053 193.36C271.284 181.73 293.633 183.754 308.532 198.263C314.084 203.67 320.634 206.524 325.99 206.574H325.984ZM47.1923 198.553C56.7417 189.33 68.1016 185.043 81.36 186.067C91.7203 186.866 100.597 191.04 108.015 198.276C113.56 203.689 120.123 206.53 129.27 206.612C139.297 206.115 147.992 201.08 152.845 190.657C157.711 180.196 156.347 170.081 148.997 161.147C138.706 148.631 120.148 147.945 108.323 159.305C96.9382 170.244 83.4409 174.161 67.9884 170.847C59.7341 169.075 52.844 164.787 46.7711 158.947C35.6502 148.253 18.1294 148.769 7.54908 159.928C-2.92439 170.98 -2.44033 188.544 8.63037 199.037C19.4622 209.303 36.2725 209.108 47.1986 198.553H47.1923Z" fill="#0A1F38"/>
</svg>
